<svg xmlns="http://www.w3.org/2000/svg" version="1.1" viewBox="0 0 600 199.4">
  <path d="M58.11,31.03c-17.13,0-30.52,4.36-40.15,13.07-9.64,8.57-14.45,20.73-14.45,39.22v62.86h31.2v-66.74c0-7.95,2.37-14.81,7.11-18.78,4.74-4.13,11.24-6.19,19.5-6.19,2.45,0,5.2.15,8.26.46,2.85.28,11.19,1.16,11.19,1.16v-23c-11.12-2.1-20.21-2.06-22.66-2.06" stroke-width="0" fill="#F06022" />
  <path d="M187.17,77.99c-.34-7.28-1.68-13.6-4.04-18.97-2.75-6.42-6.5-11.7-11.24-15.83-4.59-4.12-10.02-7.18-16.29-9.17-6.12-1.99-12.62-2.99-19.5-2.99-9.02,0-17.21,1.61-24.55,4.82-6.35,2.65-11.91,6.15-16.77,10.39h-.11s-.25.21-.7.61c-1.82,1.64-6.83,6.5-10.64,13.44-.09.17-.15.31-.22.47-1,1.81-1.94,3.67-2.76,5.61-2.91,6.73-4.36,13.77-4.36,21.11,0,10.86,1.68,20.04,5.05,27.53,3.36,7.5,8.1,13.54,14.22,18.12,6.27,4.59,13.62,7.96,22.03,10.1,8.56,1.98,18.05,2.98,28.45,2.98h9.17v-23.4c-3.46,0-7.69.03-9.88-.09-2.07-.12-33.26-1.82-39.02-25.95h81.16v-18.76ZM108.1,73.35c2.14-5.66,5.51-10.78,10.1-13.99,4.59-3.37,10.33-4.93,17.21-4.93s12.01,1.71,15.37,5.39c3.36,3.52,5.96,8.48,5.96,13.53h-48.63Z" stroke-width="0" fill="#F06022" />
  <path d="M293.69,71.18c0-13.77-4.51-23.86-13.54-30.29-9.02-6.58-21.34-9.87-36.94-9.87s-27.92,3.29-36.94,9.87c-9.03,6.42-13.54,16.52-13.54,30.29v74.99h30.75v-71.78c0-7.04,1.53-12.01,4.59-14.92,3.06-3.05,8.03-5.04,14.91-5.04s11.85,1.99,14.91,5.04c3.06,2.91,4.59,7.88,4.59,14.92v71.78h31.2v-74.99Z" stroke-width="0" fill="#F06022" />
  <path d="M530.83,117.86c-1.81-2.82-2.57-16.43-2.89-24.1-.01-.23-.01-.42-.01-.65.05-4.65.07-58.86.07-58.86h-27.53v10.78c-3.22-3.67-7.42-6.81-12.62-9.4-5.2-2.76-11.7-4.13-19.5-4.13s-14.91,1.3-21.34,3.9c-6.27,2.45-11.7,6.04-16.29,10.78-4.59,4.59-8.19,10.25-10.78,16.98-.87,2.34-1.58,4.78-2.14,7.33-.94,4.24-1.27,8.59-1.29,12.93-.02,4.78.09,11.81.84,15.48.61,3.74,1.46,7.36,2.6,10.84,2.6,7.49,6.27,13.99,11.01,19.5,4.89,5.35,10.86,9.64,17.9,12.85,7.04,3.06,14.99,4.59,23.86,4.59,8.41,0,15.98-1.15,22.71-3.44,5.12-1.82,9.65-4.28,13.59-7.37,7.3,6.87,17.68,11.02,31.14,10.85,1.08-.01,2.08-.05,3.17-.07v-23.37c-5.66,0-9.46-.65-12.5-5.41M491.53,114.99c-4.59,5.51-11.62,8.26-19.43,8.26s-13.15-2.76-17.74-8.26c-4.59-5.51-6.88-14.89-6.88-25.9s2.29-20.42,6.88-25.93c4.59-5.5,9.94-8.26,17.74-8.26s14.84,2.76,19.43,8.26c4.59,5.5,5.2,14.92,5.2,25.93s-.61,20.39-5.2,25.9" stroke-width="0" fill="#F06022" />
  <path d="M410.44,80.97c-.08-1.98-.24-3.95-.59-5.9-.69-3.82-1.69-7.41-3.01-10.78-2.75-7.19-6.65-13.23-11.7-18.13-5.05-4.9-11.16-8.64-18.36-11.24-7.04-2.6-14.84-3.9-23.4-3.9s-15.76,1.53-22.48,4.59c-6.73,3.06-12.47,7.26-17.21,12.62-4.59,5.2-8.19,11.47-10.78,18.81-.01.03-.02.07-.03.1-.77,2.32-1.34,4.69-1.8,7.08l-.03-.03s-4.99,22.5,1.67,40.93c.06.2.13.43.2.6.07.17.16.32.23.49.89,2.27,1.95,4.48,3.24,6.56l.04-.06c2.07,3.51,4.46,6.71,7.28,9.53,4.59,4.44,10.02,7.88,16.29,10.33,6.42,2.45,13.54,3.67,21.34,3.67,5.5,0,10.7-.76,15.6-2.29,5.05-1.68,9.33-4.21,12.85-7.57v9.64c0,6.33-2.91,16.83-8.72,21.57-5.81,4.89-15.53,7.29-29.14,7.29h-4.88v23.3c2.47.07,5.1.1,7.86.1,10.25,0,19.42-1.07,27.53-3.21,8.26-1.99,15.22-5.2,20.88-9.64,5.81-4.28,10.17-9.94,13.07-16.98,3.06-6.88,4.59-15.22,4.59-25.01v-45.08c0-4.13-.34-12.81-.54-17.4M374.58,114.52c-4.59,5.51-11.62,8.26-19.43,8.26s-13.15-2.76-17.74-8.26c-4.59-5.51-6.88-14.89-6.88-25.9s2.29-20.42,6.88-25.93c4.59-5.5,9.94-8.26,17.74-8.26s14.84,2.76,19.43,8.26c4.59,5.5,5.2,14.92,5.2,25.93s-.61,20.39-5.2,25.9" stroke-width="0" fill="#F06022" />
  <g>
    <path d="M571.97,50.16c-13.52,0-24.52-11-24.52-24.52s11-24.52,24.52-24.52,24.52,11,24.52,24.52-11,24.52-24.52,24.52M571.97,5.38c-11.17,0-20.26,9.08-20.26,20.26s9.09,20.26,20.26,20.26,20.26-9.09,20.26-20.26-9.09-20.26-20.26-20.26" stroke-width="0" fill="#F06022" />
    <path d="M572.68,28.62h-5v9.94h-4.49V12.72h9.08c2.98,0,5.28.67,6.9,2,1.62,1.34,2.43,3.27,2.43,5.81,0,1.73-.42,3.17-1.25,4.34-.84,1.17-1.99,2.06-3.49,2.69l5.8,10.76v.23h-4.81l-5.18-9.94ZM567.68,25h4.61c1.51,0,2.7-.38,3.55-1.14.85-.76,1.27-1.81,1.27-3.13s-.39-2.45-1.18-3.21c-.79-.76-1.96-1.15-3.52-1.17h-4.74v8.66Z" stroke-width="0" fill="#F06022" />
    <path d="M572.49,28.6h-5v9.94h-4.49V12.71h9.08c2.98,0,5.28.67,6.9,2,1.62,1.34,2.43,3.27,2.43,5.81,0,1.73-.42,3.17-1.25,4.34-.84,1.17-1.99,2.06-3.49,2.69l5.8,10.76v.23h-4.81l-5.18-9.94ZM567.49,24.98h4.61c1.51,0,2.7-.38,3.55-1.14.85-.76,1.27-1.81,1.27-3.13s-.39-2.45-1.18-3.21c-.79-.76-1.96-1.15-3.52-1.17h-4.74v8.66Z" stroke-width="0" fill="#F06022" />
  </g>
</svg>