<svg width="77" height="76" viewBox="0 0 77 76" xmlns="http://www.w3.org/2000/svg">
    <path d="M38.5125 76C37.4669 76 36.4464 75.6216 35.6653 74.9152L22.7648 64.0418H10.7713C4.825 64.0418 -0.0126953 59.198 -0.0126953 53.2441V10.7977C-9.71453e-05 4.84382 4.8376 0 10.7839 0H66.2159C72.1622 0 76.9999 4.84382 76.9999 10.7977V53.2441C76.9999 59.198 72.1622 64.0418 66.2159 64.0418H54.4744L41.3093 74.9404C40.5408 75.6216 39.5582 76 38.5251 76H38.5125ZM10.7839 2.00564C5.94624 2.00564 2.00301 5.95386 2.00301 10.7977V53.2441C2.00301 58.088 5.94624 62.0362 10.7839 62.0362H23.1427C23.3821 62.0362 23.6089 62.1245 23.7852 62.2759L36.9755 73.4015C37.3913 73.7799 37.9456 73.9944 38.5125 73.9944C39.0794 73.9944 39.5959 73.7925 39.9991 73.4267L53.4665 62.2759C53.6429 62.1245 53.8697 62.0488 54.0964 62.0488H66.2033C71.041 62.0488 74.9842 58.1006 74.9842 53.2568V10.7977C74.9842 5.95386 71.041 2.00564 66.2033 2.00564H10.7839ZM53.1768 50.9736C52.6224 50.9736 52.1815 50.5195 52.1815 49.9771C52.1815 44.2881 46.336 37.918 38.5125 37.918C30.689 37.918 24.8435 44.2881 24.8435 49.9771C24.8435 50.5321 24.39 50.9736 23.8482 50.9736C23.3065 50.9736 22.853 50.5195 22.853 49.9771C22.853 42.4843 30.1725 35.9124 38.5251 35.9124C46.8777 35.9124 54.1972 42.4843 54.1972 49.9771C54.1972 50.5321 53.7437 50.9736 53.202 50.9736H53.1768ZM38.4999 31.3839C33.448 31.3839 29.341 27.2717 29.341 22.2134C29.341 17.1552 33.448 13.0556 38.4999 13.0556C43.5518 13.0556 47.6462 17.1678 47.6462 22.2134C47.6462 27.2591 43.5392 31.3839 38.4999 31.3839ZM38.4999 15.0612C34.5567 15.0612 31.3441 18.2778 31.3441 22.2261C31.3441 26.1743 34.5567 29.3909 38.4999 29.3909C42.4431 29.3909 45.6557 26.1743 45.6557 22.2261C45.6557 18.2778 42.4431 15.0612 38.4999 15.0612Z" />
</svg>
