<svg width="89" height="86" viewBox="0 0 89 86" fill="none" xmlns="http://www.w3.org/2000/svg">
    <path d="M22.8457 13.9278C26.8682 4.33496 34.4648 -0.783088 45.2569 1.65008C56.5956 4.20911 66.2525 13.6481 73.7789 21.9685C71.7326 21.0036 67.9063 21.8985 66.7711 22.1363C58.5718 23.8003 54.8016 31.8969 46.9948 33.8966C38.8937 35.9662 29.0687 29.5896 25.8451 22.2621" stroke-width="1.5" stroke-linecap="round" stroke-linejoin="round" />
    <path d="M84.5572 49.3067C89.785 58.3122 89.2945 67.4436 80.815 74.5473C71.915 82.0147 58.5439 84.0003 47.3594 84.9512C49.3636 83.9025 50.9614 80.3226 51.466 79.2878C55.0961 71.7646 50.9054 63.8638 54.0169 56.4524C57.2545 48.7613 68.2849 44.7899 76.0917 46.6638" stroke-width="1.5" stroke-linecap="round" stroke-linejoin="round" />
    <path d="M22.6495 81.4553C12.2358 82.0007 4.31694 77.386 1.83616 66.6185C-0.770773 55.3197 3.56009 42.5385 7.80687 32.1766C7.82088 34.442 10.2877 37.4764 10.9884 38.3994C16.0481 45.0556 25.0042 44.9298 30.19 51.0826C35.5721 57.4732 34.0724 69.0657 28.8585 75.1486" stroke-width="1.5" stroke-linecap="round" stroke-linejoin="round" />
</svg>
