<svg width="82" height="82" viewBox="0 0 82 82" fill="none" xmlns="http://www.w3.org/2000/svg">
    <path d="M41 82C18.4004 82 0 63.6132 0 41C0 18.3868 18.4004 0 41 0C43.9218 0 46.9251 0.326152 49.9284 0.964866C50.4992 1.08717 50.8525 1.65794 50.7302 2.24229C50.6215 2.71793 50.1866 3.07126 49.6838 3.07126C49.6023 3.07126 49.5343 3.07126 49.4528 3.04408C46.6533 2.43255 43.8131 2.11999 41 2.11999C19.5555 2.11999 2.11999 19.5555 2.11999 41C2.11999 62.4445 19.5691 79.8936 41.0136 79.8936C62.4581 79.8936 79.9072 62.4445 79.9072 41C79.9072 38.1869 79.5946 35.3467 78.9831 32.5472C78.9151 32.2619 78.9831 31.9765 79.119 31.7454C79.2685 31.5008 79.5131 31.3378 79.7849 31.2834C79.8664 31.2698 79.9344 31.2562 80.0159 31.2562C80.5187 31.2562 80.9536 31.6095 81.0623 32.0852C81.701 34.9254 82.0136 37.9287 82.0136 41C82.0136 63.6132 63.6132 82 41.0136 82H41ZM41 68.1114C26.0514 68.1114 13.8886 55.9486 13.8886 41C13.8886 26.0514 26.0514 13.8886 41 13.8886C42.9026 13.8886 44.7236 14.0653 46.4223 14.4322C46.993 14.5545 47.36 15.1117 47.2512 15.6961C47.1425 16.1717 46.7077 16.525 46.1913 16.525C46.1913 16.525 46.0554 16.525 45.9874 16.5114C44.3023 16.1853 42.6172 16.0086 41 16.0086C27.2201 16.0086 16.0086 27.2201 16.0086 41C16.0086 54.7799 27.2201 65.9914 41 65.9914C54.7799 65.9914 65.9914 54.7799 65.9914 41C65.9914 39.3828 65.8283 37.6977 65.4886 36.0126C65.4206 35.7272 65.4886 35.4554 65.6381 35.2244C65.8011 34.9934 66.0457 34.8167 66.3311 34.7623C66.3719 34.7623 66.4398 34.7488 66.5078 34.7488C67.0242 34.7488 67.4727 35.1021 67.5542 35.5777C67.9211 37.29 68.0978 39.111 68.0978 41.0136C68.0978 55.9622 55.935 68.125 40.9864 68.125L41 68.1114ZM40.9728 54.2227C33.6888 54.2227 27.7637 48.2976 27.7637 41.0136C27.7637 34.477 32.6288 28.8508 39.0975 27.9267C39.179 27.9132 39.2469 27.8996 39.3149 27.8996C39.8313 27.8996 40.239 28.2665 40.3069 28.8101C40.3885 29.3401 40.0759 29.8157 39.6003 29.9788H39.3828C33.9606 30.767 29.8701 35.4826 29.8701 40.9728C29.8701 47.0882 34.8439 52.0756 40.9728 52.0756C46.463 52.0756 51.1922 47.9851 51.9669 42.5628C52.0348 42.06 52.5104 41.6659 53.0268 41.6659C53.0812 41.6659 53.122 41.6659 53.1763 41.6659C53.7471 41.7474 54.1412 42.3046 54.0597 42.8754C53.1356 49.3441 47.5094 54.2091 40.9728 54.2091V54.2227ZM41.0408 42.0192C40.8233 42.0192 40.5108 41.9241 40.3341 41.7203C39.8857 41.2718 39.8856 40.6195 40.3069 40.1846L55.4186 25.0729L54.4674 24.1081L55.5817 24.6381V14.3507C55.5817 12.2035 56.4107 10.1922 57.9191 8.68379L66.3175 0.326152C66.5214 0.122307 66.8068 0.0135897 67.0786 0.0135897C67.2009 0.0135897 67.3232 0.040769 67.4455 0.0815379C67.8668 0.258204 68.1114 0.625124 68.1114 1.05999V13.9022H80.9536C81.3749 13.9022 81.7554 14.1604 81.9185 14.5681C82.0815 14.9486 81.9864 15.3971 81.6874 15.6961L73.3162 24.0673C71.8078 25.5757 69.7965 26.4047 67.6493 26.4047H57.0902L41.7746 41.7203C41.5708 41.9241 41.299 42.0464 41.0408 42.0464V42.0192ZM59.414 10.1922C58.2996 11.3066 57.6881 12.7879 57.6881 14.3507V24.2983H67.6357C69.2121 24.2983 70.6798 23.6868 71.7942 22.5724L78.3716 15.995H67.0378C66.4398 15.995 65.9778 15.533 65.9778 14.935V3.61485L59.4004 10.1922H59.414Z" />
</svg>
