<svg width="28" height="32" viewBox="0 0 28 32" fill="none" xmlns="http://www.w3.org/2000/svg">
    <path d="M2.30439 31.3302C1.93779 31.3302 1.57118 31.2319 1.41918 31.1335C0.748562 30.7937 0.346191 30.0874 0.346191 29.372V2.62788C0.346191 1.93938 0.730678 1.30453 1.40129 0.884275C1.6606 0.759093 2.00932 0.669678 2.35804 0.669678C2.70676 0.669678 3.04654 0.750152 3.37737 0.920042L26.1604 14.2698C26.9205 14.7437 27.0904 15.4769 27.0904 16.0044C27.0904 16.675 26.7237 17.3367 26.1068 17.7749L3.43102 31.053C3.32373 31.0799 3.21643 31.1156 3.10019 31.1514C2.823 31.2319 2.5011 31.3302 2.30439 31.3302Z" fill="#FFFFFF" />
</svg>
